<?xml version="1.0" standalone="no"?>
<!DOCTYPE svg PUBLIC "-//W3C//DTD SVG 20010904//EN"
 "http://www.w3.org/TR/2001/REC-SVG-20010904/DTD/svg10.dtd">
<svg version="1.0" xmlns="http://www.w3.org/2000/svg"
 width="1200.000000pt" height="1200.000000pt" viewBox="0 0 1200.000000 1200.000000"
 preserveAspectRatio="xMidYMid meet">

<g transform="translate(0.000000,1200.000000) scale(0.100000,-0.100000)"
fill="#000000" stroke="none">
<path d="M3940 6000 c0 -936 2 -1060 15 -1060 13 0 15 124 15 1060 0 936 -2
1060 -15 1060 -13 0 -15 -124 -15 -1060z"/>
<path d="M2400 6746 c-119 -27 -221 -110 -261 -213 -88 -228 40 -457 281 -503
114 -22 258 32 334 126 116 141 116 328 1 468 -82 100 -229 151 -355 122z
m197 -99 c94 -49 163 -157 163 -254 0 -111 -69 -217 -170 -262 -65 -30 -169
-28 -235 3 -125 59 -189 198 -151 328 26 91 101 172 184 199 42 13 173 5 209
-14z"/>
<path d="M4947 6573 c-4 -3 -7 -15 -7 -25 0 -15 9 -18 63 -18 34 0 68 -4 76
-9 12 -8 -7 -91 -118 -503 -101 -376 -137 -497 -153 -510 -15 -13 -38 -18 -89
-18 -38 0 -69 -4 -69 -9 0 -5 -3 -16 -6 -25 -6 -14 22 -16 264 -16 281 0 282
0 282 41 0 5 -45 9 -100 9 -78 0 -102 3 -106 14 -3 8 21 113 54 233 l59 218
159 6 c217 9 315 42 414 141 117 117 131 304 30 406 -69 68 -91 72 -440 72
-169 0 -310 -3 -313 -7z m589 -67 c51 -31 69 -71 69 -156 0 -129 -61 -242
-159 -297 -48 -26 -60 -28 -188 -31 -99 -3 -138 -1 -138 8 0 6 27 113 61 238
46 172 66 232 82 246 19 16 36 18 132 14 85 -3 117 -8 141 -22z"/>
<path d="M6135 6170 c-61 -9 -131 -47 -189 -104 -243 -238 -187 -668 84 -643
72 6 111 27 171 88 50 51 105 151 94 168 -13 23 -31 9 -59 -45 -68 -130 -178
-198 -260 -159 -56 27 -72 80 -58 202 6 53 16 99 23 103 6 4 37 10 69 13 118
13 243 79 285 151 30 51 34 138 9 174 -29 42 -96 62 -169 52z m85 -62 c39 -42
19 -139 -40 -198 -40 -40 -94 -62 -186 -76 l-47 -7 7 39 c32 172 193 320 266
242z"/>
<path d="M7804 6168 c-42 -11 -103 -79 -154 -172 -23 -42 -43 -76 -45 -76 -1
0 2 21 6 47 14 72 -8 175 -41 193 -10 6 -37 10 -60 10 -61 0 -119 -58 -175
-174 -24 -50 -45 -100 -47 -111 -4 -26 30 -33 38 -8 45 126 118 233 160 233
49 0 44 -35 -61 -428 -31 -114 -59 -215 -61 -225 -5 -16 0 -18 51 -15 l57 3
43 130 c88 268 211 513 266 530 29 10 34 0 15 -29 -47 -73 13 -153 87 -115 53
27 74 101 46 162 -18 40 -72 59 -125 45z"/>
<path d="M8291 6170 c-67 -14 -138 -66 -168 -124 -22 -43 -20 -145 3 -185 11
-18 61 -63 111 -102 51 -38 99 -82 108 -98 35 -70 8 -148 -61 -177 -48 -20
-151 -17 -201 5 -61 28 -71 85 -18 109 52 24 52 105 0 118 -65 16 -109 -27
-108 -105 1 -90 65 -162 162 -182 172 -36 341 80 341 234 0 59 -26 93 -131
174 -139 106 -139 106 -139 156 0 81 61 137 150 137 50 0 106 -25 121 -52 9
-17 6 -26 -20 -52 -40 -41 -42 -88 -6 -112 46 -30 110 2 121 61 10 57 -42 146
-106 180 -36 18 -107 25 -159 15z"/>
<path d="M8997 6169 c-178 -43 -320 -248 -320 -459 1 -404 439 -374 579 40 22
66 24 205 4 265 -40 122 -145 183 -263 154z m125 -70 c45 -60 42 -193 -9 -352
-59 -189 -127 -277 -213 -277 -70 0 -102 48 -102 147 1 191 93 430 189 495 41
27 110 21 135 -13z"/>
<path d="M9584 6169 c-18 -5 -49 -28 -69 -51 -43 -47 -130 -222 -121 -244 7
-18 36 -19 36 -1 0 22 75 170 103 203 29 34 57 46 77 34 22 -14 5 -109 -70
-385 -38 -143 -70 -266 -70 -272 0 -9 17 -13 53 -13 l52 0 34 107 c39 124 161
371 226 458 77 103 158 145 185 95 14 -27 3 -66 -65 -225 -67 -153 -85 -218
-85 -300 0 -107 49 -165 128 -150 51 9 121 85 166 177 45 94 52 124 32 131
-11 5 -28 -20 -66 -98 -56 -114 -96 -158 -139 -153 -48 6 -41 57 32 230 80
191 76 179 86 253 16 111 -14 194 -75 209 -34 9 -101 -11 -140 -40 -35 -27
-111 -133 -168 -234 -37 -65 -38 -61 -15 30 13 52 11 146 -5 184 -15 36 -51
67 -76 65 -8 0 -29 -5 -46 -10z"/>
<path d="M6700 6147 c-60 -29 -148 -120 -187 -192 -77 -147 -102 -342 -55
-437 38 -78 107 -111 195 -94 43 8 116 71 159 137 l32 50 13 -73 c9 -57 17
-78 38 -95 49 -43 119 -24 174 45 34 44 111 197 111 223 0 27 -31 33 -38 7 -3
-13 -25 -62 -49 -110 -57 -114 -124 -164 -139 -103 -8 31 9 105 90 405 35 129
61 239 56 243 -4 5 -29 7 -55 5 l-48 -3 -16 -58 -17 -58 -22 46 c-12 25 -36
54 -54 65 -45 27 -129 26 -188 -3z m153 -28 c65 -30 77 -138 32 -294 -53 -182
-139 -320 -219 -350 -94 -36 -128 32 -102 205 26 173 103 350 182 419 36 33
67 38 107 20z"/>
<path d="M2060 5981 c-153 -49 -253 -157 -295 -318 -10 -38 -15 -106 -15 -200
0 -118 3 -151 20 -196 22 -60 73 -113 140 -148 l45 -24 520 0 520 0 45 23 c60
32 102 73 131 130 22 42 24 62 27 193 2 81 -1 173 -7 204 -33 176 -170 314
-347 347 l-61 11 -47 -36 c-67 -51 -121 -74 -196 -86 -113 -18 -240 17 -328
89 -42 35 -72 37 -152 11z m119 -90 c78 -61 194 -101 296 -101 101 0 232 45
302 104 27 23 34 24 69 14 105 -28 196 -105 240 -201 25 -57 28 -74 32 -207 6
-201 -12 -256 -99 -300 -37 -19 -60 -20 -541 -20 -580 0 -563 -2 -615 87 -28
47 -28 50 -28 208 1 141 4 167 23 216 44 112 160 206 281 228 2 1 20 -12 40
-28z"/>
<path d="M2521 5731 c-21 -13 -141 -452 -130 -473 11 -20 54 -24 64 -8 11 18
125 424 125 445 0 37 -29 55 -59 36z"/>
<path d="M2194 5576 c-40 -40 -64 -73 -64 -87 0 -29 122 -152 146 -147 9 1 23
13 31 25 14 21 12 25 -32 72 l-48 51 48 51 c44 47 46 51 32 72 -25 38 -45 32
-113 -37z"/>
<path d="M2652 5628 c-22 -22 -12 -52 30 -95 l42 -43 -42 -43 c-42 -43 -52
-73 -30 -95 22 -22 43 -12 106 51 41 42 62 71 62 86 0 16 -21 45 -63 88 -64
64 -83 73 -105 51z"/>
</g>
</svg>
